<?xml version="1.0" encoding="utf-8"?>
<!-- Generator: Adobe Illustrator 16.0.0, SVG Export Plug-In . SVG Version: 6.00 Build 0)  -->
<!DOCTYPE svg PUBLIC "-//W3C//DTD SVG 1.1//EN" "http://www.w3.org/Graphics/SVG/1.1/DTD/svg11.dtd">
<svg version="1.1" id="图层_1" xmlns="http://www.w3.org/2000/svg" xmlns:xlink="http://www.w3.org/1999/xlink" x="0px" y="0px"
	 width="600px" height="600px" viewBox="0 0 600 600" enable-background="new 0 0 600 600" xml:space="preserve">
<path fill="#B45B3E" stroke="#FFFFFF" stroke-width="2" stroke-miterlimit="10" d="M244.225,463.508
	c49.455,2.233,93.359-6.233,127.788-24.518c23.564-12.509,46.365-28.403,65.09-48.094c24.945-26.213,43.827-64.179,61.382-96.262
	c5.229-9.572,8.066-20.229,13.221-30.591c27.148-0.694,58.505-6.009,83.137-20.148c-5.976,39.258-18.882,74.563-37.606,104.815
	c-19.325,31.215-43.105,58.454-73.322,78.421c-50.279,33.24-113.093,52.217-172.851,50.655
	C289.344,477.223,265.799,468.866,244.225,463.508L244.225,463.508z"/>
<path fill="#FFFFFF" fill-opacity="0" stroke="#FFFFFF" stroke-width="3" stroke-miterlimit="10" d="M174.487,193.895
	c78.204-75.487,199.454-91.85,270.831-36.566c71.368,55.292,65.837,161.299-12.367,236.785
	c-78.203,75.476-199.453,91.849-270.821,36.557C90.75,375.386,96.291,269.372,174.487,193.895z"/>
<path fill="#B45B3E" stroke="#FFFFFF" stroke-width="2" stroke-miterlimit="10" d="M487.201,319.895
	c6.339-11.229,10.995-22.036,16.502-33.267c54.326-110.749-0.185-196.656-88.818-231.614
	C376.922,40.039,331.331,37.841,287.6,41.411c13.115,28.87,27.724,36.662,20.333,70.77c45.391,11.109,97.383,11.014,134.426,43.245
	c17.884,16.024,24.231,28.15,38.174,45.806C496.668,247.943,494.827,272.975,487.201,319.895L487.201,319.895z"/>
<path fill="#B45B3E" fill-opacity="0" stroke="#FFFFFF" stroke-width="3" stroke-miterlimit="10" d="M183.869,175.784l28.566-3.36
	l-0.842,7.565l14.287-5.891c9.519-4.759,19.039-9.518,28.567-14.278c18.725-6.896,37.199-13.445,57.532-13.445
	c13.012,0,26.171-0.209,38.242-5.88l7.559-10.918l17.438-1.581l-7.771,16.702l-4.334,8.634l-4.491,8.164l-5.854,8.364l-5.905,8.443
	l-6.437,8.571l-6.167,8.234l-4.821,6.801l-5.243,7.408l-4.215,5.95c-3.926,6.158-7.843,12.324-11.769,18.483l-2.942,5.905
	l-4.117,8.225l-3.015,6.037l-2.927,6.298l-2.927,6.296l-5.072,10.925l-10.083,26.882l-7.556,21.012l-5.88,22.676l-5.88,27.516
	l-3.578,22.055l-2.311,20.376l-95.558,13.02l6.505-24.152l7.565-24.363l10.083-24.361l11.762-23.521l12.601-25.205l11.76-21.843
	l15.965-21.845l15.12-20.167l15.122-18.483l14.28-15.954l20.376-23.737l-5.628,3.682l-7.392,3.874
	c-13.011,3.317-23.911,2.371-37.183,3.578c-7.8,1.886-15.92,3.762-22.99,7.713c-16.329,9.128-20.767,23.694-26.577,40.17
	l-37.383,5.984L183.869,175.784L183.869,175.784z"/>
<path fill="#B45B3E" stroke="#FFFFFF" stroke-width="2" stroke-miterlimit="10" d="M124.677,267.407l-20.315,29.731l-13.28,34.94
	c-4.387,26.691-4.967,45.975-3.777,73.062c5.879,24.912,15.538,51.089,31.492,73.479c21.802,23.738,44.218,46.339,73.906,55.432
	c43.245,16.938,90.693,16.659,134.79,7.975c-14.419-20.014-27.159-44.227-25.622-65.081c-25.075-4.28-50.498-10.865-74.739-16.796
	c-20.793-5.491-41.655-14.828-60.042-28.552c-24.902-23.216-41.438-42.682-49.386-76.335c-2.127-9.023-3.326-19.656-4.37-29.062
	l2.893-28.062L124.677,267.407L124.677,267.407z"/>
<path fill="#B45B3E" stroke="#FFFFFF" stroke-width="2" stroke-miterlimit="10" d="M358.56,125.903
	c-82.868,0.955-126.961,17.701-189.376,73.479c-15.859,17.267-32.632,46.85-44.331,65.279
	c-15.043,23.695-22.773,36.618-32.927,62.372c-13.167,1.667-29.27,2.021-42.846,5.766c-4.812,1.322-13.619,3.139-18.143,5.135
	c-4.525,1.987-8.981,4.15-13.48,6.166c-5.403,2.406-6.68,4.612-12.455,6.027c9.519-37.789,22.391-74.32,40.31-109.592
	c32.614-44.496,62.691-76.91,114.491-97.765c14.105-5.68,38.425-14.269,53.469-19.384
	C279.384,110.156,293.766,107.386,358.56,125.903L358.56,125.903z"/>
<path fill="#B45B3E" fill-opacity="0" stroke="#FFFFFF" stroke-width="2" stroke-miterlimit="10" d="M323.097,248.455l11.555-26.047
	l7.729-16.729l1.72-3.221c0.967-1.328,3.182-4.751,4.145-6.071l1.962-2.416c0.931-1.189,2.486-2.379,3.415-3.569l3.291-3.065
	c2.065-1.208,4.136-2.832,6.202-4.031c1.434-0.773,2.866-1.547,4.3-2.318l4.62-1.842l26.464-6.722l26.891-6.307l8-1.424l7.812-2.275
	l6.452-2.181l7.45-2.857l6.271-2.996l6.86-3.387l-12.396,28.565l-3.961,2.372c-1.901,0.678-6.391,1.779-9.9,2.457l-5.082,0.844
	c-2.3,0.139-4.595,0.494-6.896,0.634l-6.498,0.815l-5.454,0.4l-5.479,0.668l-6.507,0.842l-6.307,1.26l-6.809,1.259l-7.113,1.643
	c-0.939,0.337-2.215,1.094-3.275,1.536c-1.064,0.453-2.137,0.896-3.064,1.234l-2.066,1.286l-2.701,1.685l-4.367,3.751l-3.476,4.82
	l-2.832,5.682l-1.771,5.819l-1.799,6.783l22.479-2.944l7.138-24.779l30.452-6.305l-6.506,26.463l38.643-6.14l-6.507,18.534
	l-37.598,5.88l-11.761,42.637c-11.316,21.038-32.422,15.495-49.568,7.565l-4.811,3.908l-5.688,3.232l-5.542,2.25l-5.395,1.649
	l-7.133,1.346l-6.911,0.521l-5.898-0.728l12.395-34.865l3.569,1.564l3.414,1.372l3.97,0.773l3.568-0.4l4.795-1.833l-0.562-1.884
	l-0.148-2.727l0.121-2.415l0.079-2.928l1.354-2.857l1.47-2.318l2.065-2.015l2.7-1.522l3.041-0.624l2.639-0.409l2.902,0.391
	l2.736,0.591l2.927,1.788l2.623,1.981l1.58,3.603l0.876,3.396l0.244,2.971l-0.208,3.154l-1.548,3.708l-1.8,3.17l-2.083,3.551
	l4.194,0.834l2.562-1.572l2.224-2.659l1.643-2.822l1.277-2.926l1.12-3.041l5.88-21.418L323.097,248.455L323.097,248.455z"/>
<path fill="#B45B3E" fill-opacity="0" stroke="#FFFFFF" stroke-width="2" stroke-miterlimit="2.4142" d="M429.164,240.473
	c13.924,0,25.205,11.282,25.205,25.205c0,13.916-11.281,25.207-25.205,25.207c-13.922,0-25.205-11.292-25.205-25.207
	C403.959,251.755,415.242,240.473,429.164,240.473z"/>
<path fill="#B45B3E" fill-opacity="0" stroke="#FFFFFF" stroke-width="2" stroke-miterlimit="2.4142" d="M303.98,308.523
	l94.991-17.538l-0.453,2.163l-1.015,2.363l-1.667,2.918l-1.8,2.657c-1.796,2.284-3.265,3.571-5.559,5.388
	c-3.664,2.029-6.976,3.194-10.986,4.149l-14.705,2.937l-1.884,3.996l5.794-1.514l3.654-1.329l3.699-1.03l3.719-0.947l2.831-0.146
	c2.016,0.34,3.216,0.693,5.071,1.52c8.12,4.64,3.135,12.387,0.009,18.361l-23.521,5.463l2.311-7.563l-5.046-1.679l-6.714,15.123
	l35.914-7.407c-0.068,2.927-1.615,6.791-3.239,9.554c-1.513,1.857-2.907,3.446-4.638,5.1c-2.632,1.832-4.864,3.311-7.773,4.596
	c-5.618,2.527-11.917,4.123-17.95,5.384c-2.262,0.383-4.492,0.791-6.727,1.26l-13.026,44.105l-29.608,5.464l4.403-15.861
	c-1.529,1.199-3.06,2.39-4.588,3.587c-10.593,8.19-22.521,14.653-35.946,16.053l11.134-31.294c1.955,2.752,7,1.381,11.985-2.006
	l6.298-4.283c4.308-2.936,8.482-6.254,10.389-7.471l-26.987,5.777l6.505-18.691l35.291-8.408l1.676-5.453l-12.742,5.255
	l-4.638,1.634l-3.621,0.886l-2.91,0.312l-3.1-0.287l-1.938-1.154l-1.476-1.45l-0.694-1.676l-0.175-1.842l3.571-15.122l22.26-4.412
	l-1.262,6.099l6.725,3.353l6.724-15.12l-35.29,6.721L303.98,308.523L303.98,308.523z"/>
<path fill="#B45B3E" fill-opacity="0" stroke="#FFFFFF" stroke-width="2" stroke-miterlimit="2.4142" d="M407.111,324.279
	l-4.812,0.98c-6.703,1.415-14.146-0.938-11.357-8.65c1.554-2.771,3.388-5.229,5.452-7.668c7.22-7.143,14.114-13.438,21.323-20.585
	c4.168,1.746,8.12,2.754,12.707,2.52c-5.038,7.217-10.085,14.425-15.121,21.633c-0.771,4.127,3.273,3.468,5.836,3.095
	c5.159-1.304,15.945-3.006,13.089,6.229l-19.012,21.781c0.044,1.175,1.146,2.337,2.979,2.457l2.588,0.09l5.021-0.253l3.258-0.435
	l2.075-0.035c1.931,1.32,2.605,1.996,3.465,4.289l0.027,1.437l-1.8,3.847l-1.895,2.895l-2.82,4.072l-8.398,11.978l-3.336,5.101
	l-2.971,4.881l-2.796,6.461l-3.927,5.61l-45.363,7.879l5.982-0.383l4.568-1.693l3.569-2.182l3.353-3.525
	c3.899-5.393,5.107-9.554,4.368-16.476l25.728-24.361c0.703-4.586-9.467-0.611-12.148-0.271c-4.631,0.261-8.722-1.624-7.696-6.826
	c0,0,14.07-15.921,18.771-21.688C408.372,325.791,408.841,323.984,407.111,324.279L407.111,324.279z"/>
<path fill="#B45B3E" fill-opacity="0" stroke="#FFFFFF" stroke-width="2" stroke-miterlimit="2.4142" d="M363.232,363.146
	c11.135,0,20.158,9.119,20.158,20.367s-9.023,20.367-20.158,20.367c-11.146,0-20.167-9.119-20.167-20.367
	S352.089,363.146,363.232,363.146z"/>
<path fill="#B45B3E" fill-opacity="0" stroke="#FFFFFF" stroke-width="2" stroke-miterlimit="2.4142" d="M453.007,257.28
	l20.948-14.236c-6.514,6.775-13.028,13.55-19.533,20.325C453.987,261.336,453.441,259.304,453.007,257.28L453.007,257.28z"/>
<path fill="#B45B3E" fill-opacity="0" stroke="#FFFFFF" stroke-width="3" stroke-miterlimit="10" d="M146.035,148.902l14.28-10.925
	l16.805-10.085l21.002-10.074l19.325-8.826l21.001-7.565l15.965-4.194v4.621l0.339,2.883l1.39,3.309l2.049,3.467l-17.216,4.62
	l-15.963,4.204l-19.325,5.88L183,133.781l-18.482,7.556L146.035,148.902L146.035,148.902z M338.01,87.991l2.242,3.917l0.693,3.222
	l-0.503,3.528l-1.589,4.454l18.897-0.417l15.122,0.834l14.964,1.841l12.759,1.945l15.963,3.78l15.122,3.778l17.644,6.306
	l10.083,4.194l-10.083-7.556l-14.279-8.407l-17.64-7.557l-18.067-5.881l-13.521-3.43l-12.939-2.449l-17.686-2.171L338.01,87.991
	L338.01,87.991z M286.757,80.009l-4.587,0.061l-4.568,0.053l-4.708,0.729l-4.534,2.276l-3.969,1.963l-2.839,2.901l-2.458,4.264
	l-1.321,3.717l-0.226,3.466l-0.191,4.091l1.085,3.24l3.146,2.718l2.909,2.449l3.908,1.415l4.915,1.103l3.778-9.667l-2.666-1.597
	l-1.538-1.338l-0.269-2.502l0.546-3.353l2.242-1.71l3.04-1.276l3.683-0.4L286.757,80.009L286.757,80.009z M294.739,64.887h17.224
	l-2.102,6.297l-11.344-0.417l-17.214,43.687h-5.463L294.739,64.887L294.739,64.887z M299.359,72.87l17.224-0.425l-2.519,5.88
	h-10.929l-17.215,42.854h-5.889L299.359,72.87L299.359,72.87z M304.406,80.852h18.897l5.082,1.693l4.577,3.344l2.354,4.917
	l1.008,5.585l-0.862,5.523l-2.916,4.56l-3.223,3.596l-4.343,2.336l-4.196,2.049H307.34l-6.722,15.963h-16.797L304.406,80.852
	L304.406,80.852z M315.74,93.028l4.621,0.842l1.347,3.405l-1.598,3.396l-3.104,2.859h-5.463L315.74,93.028L315.74,93.028z"/>
</svg>
