<?xml version="1.0" encoding="utf-8"?>
<!-- Generator: Adobe Illustrator 16.0.0, SVG Export Plug-In . SVG Version: 6.00 Build 0)  -->
<!DOCTYPE svg PUBLIC "-//W3C//DTD SVG 1.1//EN" "http://www.w3.org/Graphics/SVG/1.1/DTD/svg11.dtd">
<svg version="1.1" id="图层_1" xmlns="http://www.w3.org/2000/svg" xmlns:xlink="http://www.w3.org/1999/xlink" x="0px" y="0px"
	 width="600px" height="600px" viewBox="0 0 600 600" enable-background="new 0 0 600 600" xml:space="preserve">
<path fill="#FFFFFF" d="M435.652,480.882c-0.377,1.191-0.773,2.403-1.191,3.626c-2.914,8.388-7.113,17.36-13.173,25.415
	c-12.358,16.412-25.761,24.382-25.792,24.402c-0.94,0.564-2.653,0.292-3.364-0.522l-12.827-14.667l0.605,19.484
	c0.021,0.845-0.836,2.182-1.619,2.516l-17.916,7.669l18.72,5.442c0.795,0.239,1.818,1.474,1.901,2.309l1.756,19.409l10.947-16.119
	c0.48-0.7,1.964-1.274,2.789-1.086l19.023,4.324l-11.951-15.407c-0.805-1.034-0.584-2.896,0.439-3.699
	c0.031-0.03,10.05-7.823,22.939-30.69C432.277,503.833,434.67,491.725,435.652,480.882L435.652,480.882z M440.886,452.51
	c0.011,0.021,0.074,0.429,0.084,0.449c0.135,1.441,1.065,11.429,0.333,23.733c-0.74,12.493-3.154,27.537-9.725,39.195
	c-10.029,17.77-18.596,26.973-22.313,30.493l14.979,19.315c1.442,1.86-0.397,4.732-2.685,4.21l-24.465-5.568l-14.114,20.758
	c-1.325,1.941-4.637,1.086-4.846-1.264l-2.258-24.999l-24.1-6.998c-2.266-0.659-2.453-4.065-0.303-4.994l23.065-9.872l-0.782-25.092
	c-0.072-2.351,3.102-3.604,4.648-1.818l16.202,18.512c3.907-2.664,13.424-9.842,22.438-21.823
	c5.663-7.532,9.621-16.003,12.38-23.963c5.296-15.273,6.142-28.562,6.214-29.793c0.146-2.581,4.524-3.062,5.214-0.565
	L440.886,452.51L440.886,452.51z"/>
<path fill="#FFFFFF" d="M176.112,475.764l12.05-8.368c2.742-1.901,6.686,0.898,5.776,4.117l-5.312,18.708l-6.226-0.898
	L176.112,475.764L176.112,475.764z"/>
<path fill-rule="evenodd" clip-rule="evenodd" fill="#FFFFFF" stroke="#FFFFFF" stroke-width="0.9915" stroke-linejoin="round" stroke-miterlimit="2.4142" d="
	M349.312,40.003c-5.171,1.327-16.568,5.036-33.047,14.771c-23.087,13.643-38.61,48.775-38.61,48.775s17.262-26.837,44.224-38.308
	c18.417-7.834,33.543-8.023,33.543-8.023l5.215,26.388l12.723-23.703l26.712,3.197l-9.706-10.133l-8.91-9.287l11.304-24.423
	l-24.236,11.7l-19.722-18.291l3.634,26.659C352.436,39.324,351.37,39.481,349.312,40.003L349.312,40.003z M460.816,459.864
	c0.972-3.332,1.892-6.687,2.643-10.092c13.206-59.283-13.704-115.37-13.704-115.37l47.28-28.957l-34.17-43.571
	c3.562,1.002,7.239,2.068,11.021,3.217c27.066,8.201,47.039,25.949,61.277,44.314c21.081,27.149,29.595,55.668,29.907,56.734h0.012
	c-0.272-1.307-7.062-34.535-25.343-66.753c-4.199-7.396-9.005-14.75-14.48-21.634c-22.949-28.927-61.967-53.309-98.279-61.948
	l7.251-54.969l-54.54,0.637l-0.294-0.438c3.458-2.477,7.105-5.003,10.916-7.595c58.209-39.466,134.687-7.783,135.919-7.271l0,0
	c-1.014-0.533-33.188-17.299-71.505-22.898c-7.417-0.982-14.751-1.724-22.251-1.786c-60.726-0.585-109.995,37.387-109.995,37.387
	l-38.15-40.218l-34.117,43.174c-0.904,5.12,0.793-13.099,0.803-13.266c3.035-35.632,23.332-63.368,42.716-82.087
	c18.965-18.333,37.048-28.06,37.193-28.133l0,0l0,0c-0.219,0.095-21.374,9.172-44.46,26.116
	c-11.563,8.482-23.609,18.928-33.751,31.213c-38.667,46.831-40.162,109.019-40.162,109.019l-2.204,0.177l0,0l-21.593,1.692l0,0
	l-31.47,2.465l11.783,52.4c-2.063-1.923-4.157-3.918-6.293-5.965c-51.124-49.139-35.361-131.467-35.361-131.467
	s-14.181,49.923-4.675,96.869c12.061,59.524,59.451,99.816,59.451,99.816l-31.407,45.682l47.479,23.493
	c-3.923,0.795-8.002,1.578-12.238,2.33c-69.803,12.483-127.148-48.67-127.148-48.67s32.061,40.825,75.627,60.715
	c55.24,25.238,115.693,10.582,115.693,10.582l15.288,43.069l78.417,0.346c2.684-3.229,5.16-6.404,7.405-9.433
	c11.741-15.837,17.571-28.102,17.571-28.102l27.066,9.602l0,0l25.187,8.92l10.76-53.757l1.535-1.201
	c2.477,5.494,5.005,11.365,7.543,17.622c7.229,17.781,9.768,39.123,7.448,56.463L460.816,459.864L460.816,459.864z M117.335,89.498
	l22.763,14.343c0,0-7.031,11.22-11.418,37.639c-4.387,26.44,12.526,60.892,12.546,60.933l0,0c-0.01-0.042-9.463-30.493-0.924-58.51
	c5.84-19.137,15.418-30.848,15.418-30.848l23.567,12.974l-9.981-24.988l19.624-18.417l-26.848,1.786l-11.444-24.361l-6.607,26.085
	L117.335,89.498L117.335,89.498z M65.986,280.112l-0.48-2.965l-1.677,2.872L51.968,300.4l-26.582-4.137v0.01l17.921,20.057
	l-12.144,24.006l24.623-10.843c0,0,3.144,7.083,13.334,18.667c3.129,3.541,6.915,7.521,11.485,11.847
	c10.912,10.321,27.652,16.506,40.266,19.953l0,0c9.517,2.591,16.683,3.624,17.226,3.708h0.021c-0.184-0.062-3.651-1.117-8.875-3.343
	h-0.005c-10.457-4.45-27.933-13.569-40.13-28.603c-6.952-8.586-13.747-19.378-16.954-30.033l21.138-10.854l0,0l2.8-1.431
	l-26.298-5.694L65.986,280.112L65.986,280.112z M582.445,411.33l-25.824-7.521c0,0,3.667-12.723,0.605-39.33
	c-1.18-10.175-19.409-48.858-28.852-55.085c0.501,0.764,17.486,27.088,17.006,55.962c-0.335,20.006-6.31,33.908-6.31,33.908
	l-26.241-5.975l16.483,21.269l-13.788,23.108l25.32-9.109l17.719,20.255l-0.836-26.9L582.445,411.33L582.445,411.33z
	 M430.743,142.785c7.521-1.223,15.68-1.285,23.252-0.856c10.489,0.595,23.13,2.653,34.809,8.085
	c8.419,3.928,15.147,8.42,19.931,12.118c5.526,4.251,8.473,7.438,8.473,7.438l-16.129,21.54l26.126-6.415l15.503,22l1.983-26.836
	l25.679-7.94l0.021-0.01l-24.904-10.164l0.397-26.879l-0.021-0.01l-17.362,20.526c0,0-3.302-2.778-10.885-6.644
	c-5.704-2.925-13.83-6.456-24.799-9.903c-11.105-3.479-24.257-3.197-35.602-1.765C447.749,138.272,437.01,140.728,430.743,142.785
	L430.743,142.785z"/>
<path fill-rule="evenodd" clip-rule="evenodd" fill="#B5B5B6" d="M419.804,536.363L419.804,536.363
	c0.116-0.147,33.272-39.926,43.655-86.591c13.206-59.283-13.704-115.37-13.704-115.37l47.28-28.957l-35.079-42.287l-0.053-0.063
	l-67.263,54.646c0,0,22.02,24.37,46.329,84.134C467.67,467.511,419.879,536.259,419.804,536.363L419.804,536.363z"/>
<path fill-rule="evenodd" clip-rule="evenodd" fill="#727171" d="M437.637,453.22l-0.021-0.084
	c-0.104,1.924-2.079,32.531-19.139,55.199c-12.034,15.993-25.039,23.714-25.039,23.714l-17.707-20.246l0.837,26.89l-24.738,10.592
	l25.823,7.511l2.424,26.797l15.137-22.252l26.231,5.976l-16.485-21.259c0,0,10.446-8.147,23.609-31.476
	C441.23,492.153,437.919,456.02,437.637,453.22L437.637,453.22z"/>
<path fill-rule="evenodd" clip-rule="evenodd" fill="#9FA0A0" d="M317.41,441.521l0.01-0.011l-39.44-77.126l-0.026-0.021
	c-0.559,0.313-29.042,16.578-91.928,27.818c-69.797,12.483-127.148-48.67-127.148-48.67s32.061,40.825,75.627,60.715
	c55.24,25.238,115.698,10.582,115.698,10.582l18.497,52.264L317.41,441.521L317.41,441.521z"/>
<linearGradient id="SVGID_1_" gradientUnits="userSpaceOnUse" x1="2398.2021" y1="-159.998" x2="1722.8667" y2="-598.1782" gradientTransform="matrix(0.1084 0.0342 -0.0342 0.1084 -153.044 319.3195)">
	<stop  offset="0" style="stop-color:#FFFFFF"/>
	<stop  offset="1" style="stop-color:#000000"/>
</linearGradient>
<path fill-rule="evenodd" clip-rule="evenodd" fill="url(#SVGID_1_)" fill-opacity="0.8" d="M63.834,280.019l2.152,0.094
	l-0.48-2.965L63.834,280.019L63.834,280.019z M86.937,348.934L69.12,348.15c3.129,3.551,6.915,7.531,11.485,11.856
	c10.912,10.321,27.652,16.506,40.266,19.953l8.368,0.365c-10.457-4.45-27.933-13.569-40.125-28.603
	C88.357,350.793,87.63,349.864,86.937,348.934L86.937,348.934z M65.986,280.112l-2.152-0.094L51.968,300.4l-26.582-4.137v0.01
	l10.765,12.046l57.142,2.517l2.8-1.431l-26.298-5.694L65.986,280.112L65.986,280.112z M93.292,310.836l-57.142-2.517l7.157,8.011
	l-12.144,24.006l24.623-10.843c0,0,3.144,7.083,13.334,18.657l17.816,0.783c-10.933-14.437-14.782-27.244-14.782-27.244
	L93.292,310.836L93.292,310.836z M129.244,380.325l-8.373-0.365c9.517,2.591,16.683,3.636,17.226,3.708h0.021
	C137.935,383.615,134.467,382.551,129.244,380.325L129.244,380.325z"/>
<path fill-rule="evenodd" clip-rule="evenodd" fill="#9FA0A0" d="M127.411,123.992c0,0-15.758,82.338,35.366,131.467
	c46.518,44.71,76.551,58.019,76.551,58.019l-39.226,77.282l-49.316-24.402l31.407-45.682c0,0-47.39-40.292-59.451-99.816
	C113.235,173.916,127.411,123.992,127.411,123.992L127.411,123.992z"/>
<path fill-rule="evenodd" clip-rule="evenodd" fill="#898989" d="M137.298,86.981l35.162,11.104l16.469-15.45L162.082,84.4
	l-11.444-24.351l-6.607,26.085L137.298,86.981L137.298,86.981z M141.226,202.413L141.226,202.413
	c-0.01-0.042-9.463-30.493-0.924-58.51c5.84-19.137,15.418-30.848,15.418-30.848l23.567,12.974l-9.981-24.988l3.15-2.956
	l-35.157-11.104l-19.963,2.517l22.763,14.343c0,0-7.036,11.22-11.418,37.639C124.292,167.919,141.206,202.371,141.226,202.413
	L141.226,202.413z"/>
<path fill-rule="evenodd" clip-rule="evenodd" fill="#9FA0A0" d="M216.273,252.67l-52.447-14.573l5.537,24.612L216.273,252.67
	L216.273,252.67z M250.814,223.797l-62.057-17.237l-31.47,2.465l6.54,29.073l52.447,14.573l37.831-8.106
	C254.104,244.564,252.245,237.669,250.814,223.797L250.814,223.797z M188.757,206.56l62.057,17.237
	c-0.25-2.424-0.486-5.046-0.695-7.887l-39.769-11.042L188.757,206.56L188.757,206.56z M293.733,66.475l-7.267-2.026
	c-11.563,8.492-23.609,18.938-33.751,31.223c-38.667,46.831-40.162,109.019-40.162,109.019l-2.204,0.167l39.769,11.052
	c-1.181-15.837-1.577-38.255,0.898-67.348C254.052,112.919,274.349,85.204,293.733,66.475L293.733,66.475z M330.927,38.342v-0.01
	l0,0c-0.219,0.104-21.374,9.182-44.46,26.116l7.267,2.026C312.698,48.142,330.781,38.415,330.927,38.342L330.927,38.342z"/>
<path fill-rule="evenodd" clip-rule="evenodd" fill="#727171" d="M390.366,52.967l-41.064-12.964
	c-5.16,1.327-16.558,5.036-33.036,14.771c-23.087,13.643-38.61,48.775-38.61,48.775s17.262-26.848,44.224-38.308
	c18.417-7.834,33.543-8.023,33.543-8.023l5.215,26.388l12.723-23.703l26.712,3.197L390.366,52.967L390.366,52.967z M388.444,21.346
	l2.916,0.919l1.399-3.008L388.444,21.346L388.444,21.346z M349.312,40.003l41.054,12.964l-8.91-9.287l9.904-21.415l-2.916-0.919
	l-19.921,9.61l-19.722-18.281l3.634,26.649C352.436,39.324,351.37,39.481,349.312,40.003L349.312,40.003z"/>
<path fill-rule="evenodd" clip-rule="evenodd" fill="#9FA0A0" d="M454.728,123.271l-3.688-0.491l-1.264-0.167
	c-5.683-0.669-11.47-1.076-17.299-1.139c-60.726-0.575-109.995,37.398-109.995,37.398l-38.15-40.218l-34.117,43.164l67.425,54.447
	c0,0,19.274-26.618,72.675-62.825c58.209-39.466,134.696-7.783,135.919-7.271l0,0C525.219,145.647,493.045,128.87,454.728,123.271
	L454.728,123.271z"/>
<path fill-rule="evenodd" clip-rule="evenodd" fill="#727171" d="M435.641,142.21l0.689-1.034c-3.509,0.93-5.587,1.609-5.587,1.609
	S432.539,142.493,435.641,142.21L435.641,142.21z M436.342,141.176l-0.701,1.034c4.17-0.366,10.688-0.71,18.354-0.282
	c10.489,0.595,23.13,2.653,34.809,8.085c8.419,3.917,15.147,8.42,19.931,12.118c5.526,4.251,8.473,7.438,8.473,7.438l-16.119,21.54
	l26.116-6.403l15.503,21.988l1.983-26.836l25.688-7.94l0.011-0.01l-24.904-10.164l0.397-26.879l-0.021-0.01l-17.362,20.526
	c0,0-3.302-2.778-10.885-6.654c-5.704-2.915-13.83-6.445-24.799-9.893c-11.094-3.479-24.257-3.197-35.602-1.755
	C448.668,138.158,441.146,139.901,436.342,141.176L436.342,141.176z"/>
<path fill-rule="evenodd" clip-rule="evenodd" fill="#898989" d="M271.858,490.461l0.047-0.052
	c-0.972,0.565-28.069,16.034-56.766,14.05c-19.963-1.389-33.528-8.085-33.528-8.085l7.339-25.886l-22.099,15.345l-22.35-14.969
	l7.768,25.76l-21.155,16.621l26.9,0.574l9.281,25.261l8.853-25.407c0,0,12.521,4.325,39.247,2.654
	C241.365,514.708,270.176,491.809,271.858,490.461L271.858,490.461z"/>
<path fill-rule="evenodd" clip-rule="evenodd" fill="#898989" d="M295.018,478.156C256,519.921,193.066,524.518,193.066,524.518
	s51.892,0.772,94.775-20.561c6.283-3.133,12.19-6.653,17.738-10.424c20.024-13.622,35.24-30.608,45.729-44.742l-21.264-30.975
	c-4.909,11.168-11.172,24.049-19.143,38.518C306.372,464.554,300.972,471.772,295.018,478.156L295.018,478.156z M330.044,417.816
	l21.264,30.975c11.741-15.837,17.571-28.102,17.571-28.102l27.066,9.602l-42.256-61.54l42.267,61.54l25.165,8.92h0.011
	l10.801-53.944l-0.01-0.011l-78.233-16.505l-6.56-1.389C347.13,367.362,344.31,385.339,330.044,417.816L330.044,417.816z"/>
<path fill-rule="evenodd" clip-rule="evenodd" fill="#727171" d="M582.445,411.33v-0.011l-25.824-7.511
	c0,0,3.667-12.723,0.605-39.33c-3.029-26.211-28.037-54.196-28.842-55.085h-0.01c0.501,0.764,17.486,27.098,17.006,55.962
	c-0.335,20.006-6.31,33.908-6.31,33.908l-26.241-5.975l16.483,21.269l-13.788,23.108l25.32-9.109l17.719,20.255l-0.836-26.9
	L582.445,411.33L582.445,411.33z"/>
<path fill-rule="evenodd" clip-rule="evenodd" fill="#9FA0A0" d="M379.241,161.484l-0.031,0.073l0.135,86.59
	c0,0,20.811-1.117,60.485,7.887l14.04-30.786l-14.04,30.786c10.133,2.298,21.499,5.255,34.057,9.057
	c27.066,8.201,47.039,25.949,61.277,44.314c21.081,27.149,29.595,55.668,29.907,56.734h0.012
	c-0.272-1.296-7.062-34.535-25.343-66.753c-4.199-7.396-9.005-14.75-14.469-21.634c-21.552-27.14-50.498-43.468-71.401-52.504
	c-15.722-6.79-26.89-9.443-26.89-9.443l7.251-54.969L379.241,161.484L379.241,161.484z"/>
<polygon fill="#3E3A39" points="308.51,280.938 287.492,280.301 305.511,224.475 326.598,224.475 308.51,280.938 "/>
<polygon fill="#3E3A39" points="320.533,264.643 380.557,264.643 387.181,283.843 326.493,283.843 320.533,264.643 "/>
<polygon fill="#3E3A39" points="332.103,302.238 347.902,292.618 366.455,348.369 350.619,359.568 332.103,302.238 "/>
<polygon fill="#3E3A39" points="317.123,314.189 332.432,326.17 286.415,363.852 270.699,351.42 317.123,314.189 "/>
<polygon fill="#3E3A39" points="301.521,303.169 294.136,321.303 246.745,283.561 254.742,265.561 301.521,303.169 "/>
</svg>
