<?xml version="1.0" encoding="utf-8"?>
<!-- Generator: Adobe Illustrator 16.0.0, SVG Export Plug-In . SVG Version: 6.00 Build 0)  -->
<!DOCTYPE svg PUBLIC "-//W3C//DTD SVG 1.1//EN" "http://www.w3.org/Graphics/SVG/1.1/DTD/svg11.dtd">
<svg version="1.1" id="图层_1" xmlns="http://www.w3.org/2000/svg" xmlns:xlink="http://www.w3.org/1999/xlink" x="0px" y="0px"
	 width="600px" height="600px" viewBox="0 0 600 600" enable-background="new 0 0 600 600" xml:space="preserve">
<path fill="#00A0E9" fill-opacity="0" stroke="#FFFFFF" stroke-width="2" d="M300.082,2.68C464.34,2.68,597.5,135.84,597.5,300.1
	c0,164.248-133.16,297.4-297.418,297.4C135.827,597.5,2.671,464.348,2.671,300.1C2.671,135.84,135.827,2.68,300.082,2.68z"/>
<polygon fill="#FFFFFF" points="450.058,147.274 461.454,152.668 449.742,149.171 436.458,145.662 422.859,142.438 409.129,139.507 
	395.45,136.891 382.017,134.579 369.004,132.5 356.666,130.797 345.103,129.336 334.558,128.209 325.229,127.379 317.158,126.893 
	301.23,127.196 285.875,127.906 270.917,128.941 256.356,130.31 242.108,131.983 228.201,133.96 214.598,136.222 201.299,138.747 
	188.249,141.494 175.45,144.476 162.868,147.67 150.481,151.087 139.422,154.312 151.945,148.805 163.917,144.171 176.684,139.811 
	190.18,135.764 204.33,132.074 219.051,128.789 234.265,125.919 249.926,123.576 265.925,121.721 282.218,120.494 298.718,119.885 
	315.374,119.977 327.329,120.433 339.588,121.294 352.019,122.481 364.594,124.094 377.198,126.101 389.802,128.485 
	402.307,131.344 414.657,134.64 426.773,138.381 438.597,142.589 "/>
<polygon fill="#9FA0A0" fill-opacity="0" stroke="#FFFFFF" stroke-width="1.5" stroke-miterlimit="2.4142" points="294.073,325.055 
	313.01,325.055 313.02,394.453 294.103,394.453 "/>
<polygon fill="#9FA0A0" fill-opacity="0" stroke="#FFFFFF" stroke-width="1.5" stroke-miterlimit="2.4142" points="198.21,325.084 
	216.64,325.084 248.557,370.879 248.542,325.084 266.077,325.055 266.106,394.486 247.488,394.486 215.713,349.035 215.728,394.516 
	198.242,394.516 "/>
<polygon fill="#9FA0A0" fill-opacity="0" stroke="#FFFFFF" stroke-width="1.5" stroke-miterlimit="2.4142" points="152.189,325.117 
	171.036,325.117 171.036,368.373 169.439,377.43 166.163,384.283 161.467,389.303 155.572,392.812 148.595,394.908 140.825,395.822 
	132.559,395.67 124.222,394.668 119.228,393.178 114.975,391.049 111.41,388.299 108.504,385.047 106.203,381.23 104.524,376.912 
	103.475,372.127 103.019,366.854 103.003,325.146 121.849,325.117 121.941,369.814 123.706,375.594 127.224,379.924 
	131.867,382.447 137.02,383.342 142.171,382.447 146.829,379.924 150.38,375.627 152.159,369.844 "/>
<polygon fill="#9FA0A0" fill-opacity="0" stroke="#FFFFFF" stroke-width="1.5" stroke-miterlimit="2.4142" points="106.787,415.262 
	127.625,415.262 127.625,472.566 167.151,472.566 167.151,486.793 106.787,486.793 "/>
<polygon fill="#9FA0A0" fill-opacity="0" stroke="#FFFFFF" stroke-width="1.5" stroke-miterlimit="2.4142" points="343.645,439.459 
	315.433,439.459 315.433,494.451 293.475,494.451 293.475,439.459 271.074,439.459 271.074,421.418 343.645,421.418 
	416.208,421.418 416.208,439.459 393.799,439.459 393.799,494.451 371.834,494.451 371.834,439.459 "/>
<path fill="#8D8BA1" fill-opacity="0" stroke="#FFFFFF" stroke-width="2" stroke-miterlimit="2.4142" d="M373.304,405.275
	c-24.428,0-44.342-19.926-44.342-44.365c0-24.406,19.914-44.332,44.342-44.332c24.429,0,44.346,19.926,44.346,44.332
	C417.648,385.35,397.731,405.275,373.304,405.275L373.304,405.275z"/>
<path fill="#9FA0A0" fill-opacity="0" stroke="#FFFFFF" stroke-width="2" stroke-miterlimit="2.4142" d="M219.312,494.863
	c-24.433,0-44.347-19.924-44.347-44.354c0-24.418,19.914-44.344,44.347-44.344s44.35,19.926,44.35,44.344
	C263.662,474.939,243.745,494.863,219.312,494.863L219.312,494.863z"/>
<path fill="#B19F9F" fill-opacity="0" stroke="#FFFFFF" stroke-width="2" stroke-miterlimit="2.4142" d="M466.728,491.771
	c-24.43,0-44.354-19.925-44.354-44.365c0-24.426,19.926-44.361,44.354-44.361c24.438,0,44.376,19.937,44.376,44.361
	C511.104,471.848,491.165,491.771,466.728,491.771L466.728,491.771z"/>
<path fill="none" stroke="#FFFFFF" stroke-width="1.5" d="M267.309,80.277h15.59l-7.566,19.663h-3.944
	c-6.851,0-13.451,4.979-14.704,11.043l0,0c-1.181,6.083,3.356,11.012,10.146,11.032l-6.464,16.812
	c-14.704-1.236-25.427-13.923-24.276-29.224l0,0C237.369,93.48,251.407,80.277,267.309,80.277L267.309,80.277z M312.534,80.277
	h21.901c15.898,0,27.928,13.203,26.672,29.326l0,0c-1.278,16.134-15.334,29.296-31.224,29.296h-15.202l-9.799,25.583h-24.729
	L312.534,80.277L312.534,80.277z M329.712,99.939l-8.498,22.105h5c6.813,0,13.435-4.958,14.644-11.062l0,0
	c1.244-6.064-3.339-11.043-10.152-11.043H329.712L329.712,99.939z M297.668,52.868h26.224l-3.429,8.943h-17.523l-29.01,75.637
	h-8.751L297.668,52.868L297.668,52.868z M304.757,67.014h26.192l-3.43,8.924h-17.49l-29.057,75.627h-8.722L304.757,67.014
	L304.757,67.014z"/>
<polygon fill="#9FA0A0" fill-opacity="0" stroke="#FFFFFF" stroke-width="1.5" stroke-miterlimit="2.4142" points="435.212,325.084 
	453.646,325.084 485.569,370.879 485.548,325.084 503.082,325.055 503.109,394.486 484.494,394.486 452.714,349.035 
	452.732,394.516 435.253,394.516 "/>
<g>
	<g>
		<path fill="#F7F8F8" d="M169.564,194.679c-1.1,0-2-0.9-2-2v-11.291c0-1.1,0.9-2,2-2h55.999c1.1,0,2,0.9,2,2v9.81
			c0,1.1-0.315,2.843-0.7,3.874l-20.361,54.5c-0.385,1.03-0.357,2.706,0.062,3.723l8.79,21.333c0.34,2.635,1.953,3.802,4.782,3.457
			h4.881c1.1,0,2,0.9,2,2v8.84c0,1.1-0.9,2-2,2h-13.921c-4.594,0-7.611-2.151-9.011-6.421l-3.942-8.547
			c-0.461-0.999-1.18-0.983-1.598,0.034l-3.498,8.513c-1.405,4.612-4.776,6.906-10.08,6.906h-12.345c-1.1,0-2-0.9-2-2v-9.326
			c0-1.1,0.9-2,2-2h2.269c2.832,0.345,4.417-0.659,4.776-2.95l8.86-23.791c0.384-1.031,0.349-2.703-0.079-3.717l-18.629-44.188
			c-0.427-1.014,0.123-1.843,1.223-1.843h13.512c1.1,0,2.342,0.833,2.761,1.85l9.644,23.445c0.418,1.017,1.052,0.998,1.409-0.042
			l10.37-30.276c0.356-1.041-0.252-1.892-1.352-1.892L169.564,194.679L169.564,194.679z M132.806,223.94
			c0.431,1.012,1.065,0.986,1.41-0.059l8.85-26.807c0.345-1.045-0.273-1.899-1.373-1.899h-33.164c-1.1,0-2-0.9-2-2v-11.301
			c0-1.1,0.9-2,2-2h52.799c1.1,0,2,0.9,2,2v9.324c0,1.1-0.315,2.843-0.702,3.873L143.33,246.6c-0.386,1.03-0.36,2.706,0.058,3.723
			l10.39,25.298c0.695,1.977,1.943,2.807,3.707,2.462h4.368c1.1,0,2,0.9,2,2v9.326c0,1.1-0.9,2-2,2h-12.867
			c-4.587,0-7.417-1.978-8.486-5.914l-5.579-12.966c-0.435-1.01-1.121-1-1.524,0.024l-5.103,12.942
			c-1.774,4.271-4.78,6.256-9.02,5.914h-10.209c-1.1,0-2-0.9-2-2v-9.326c0-1.1,0.9-2,2-2h2.761c1.065,0.345,1.79-0.142,2.125-1.48
			l10.443-27.728c0.388-1.029,0.37-2.707-0.04-3.728l-16.544-41.2c-0.41-1.021,0.155-1.856,1.255-1.856h12.449
			c1.1,0,2.352,0.828,2.783,1.84L132.806,223.94z M253.49,204.079c-1.1,0-2-0.9-2-2v-10.328c0-1.1,0.9-2,2-2h3.322
			c1.405,0.344,2.987-0.478,4.757-2.455l7.646-7.93c0.764-0.792,2.288-1.439,3.388-1.439h18.29c1.1,0,1.414,0.683,0.697,1.517
			l-1.626,1.894c-0.717,0.834-0.403,1.517,0.697,1.517h78.813c1.101,0,2,0.9,2,2v9.801c0,1.1-0.614,2.657-1.367,3.459L358.496,210.5
			c-0.753,0.802-0.468,1.459,0.632,1.459h10.854c1.1,0,2,0.9,2,2v30.073c1.064,11.175-4.41,16.132-16.438,14.807h-82.422
			c-1.1,0-2,0.9-2,2v13.301c-0.699,3.285,0.731,4.613,4.259,3.943h95.151c1.1,0,2,0.9,2,2v9.833c0,1.1-0.9,2-2,2H268.475
			c-13.795,1.296-19.454-3.317-16.985-13.833v-64.124c0-1.1,0.9-2,2-2h77.222c1.101,0,2.604-0.668,3.339-1.486l11.109-12.331
			c0.736-0.817,0.438-1.486-0.661-1.486h-64.983c-1.1,0-2.66,0.612-3.466,1.36l-3.857,3.578c-1.411,1.965-4.594,2.788-9.553,2.484
			L253.49,204.079L253.49,204.079z M271.122,243.024c0,1.1,0.9,2,2,2h26.814c1.1,0,2-0.9,2-2v-15.723c0-1.1-0.899-2-2-2h-26.814
			c-1.1,0-2,0.9-2,2V243.024z M352.351,240.108v-12.806c0-1.1-0.899-2-2-2h-27.333c-1.1,0-2,0.9-2,2v15.723c0,1.1,0.9,2,2,2h22.447
			C350.759,245.674,353.069,244.032,352.351,240.108z M441.911,191.273c0-1.1,0.899-2,2-2h24.148c1.101,0,2-0.9,2-2v-5.399
			c0-1.1,0.9-2,2-2h13.522c1.1,0,2,0.9,2,2v5.399c0,1.1,0.9,2,2,2h5.423c2.131,0,3.368-1.003,3.711-2.98v-2.443c0-1.1,0.9-2,2-2
			h11.402c1.1,0,2,0.9,2,2v7.371c0,8.57-5.303,12.687-15.934,12.339h-9.13c-1.1,0-2,0.9-2,2v34.008c0,1.1,0.9,2,2,2h13.512
			c1.1,0,2.096,0.895,2.214,1.989l3.499,32.56c0,2.951,1.062,4.288,3.193,3.943h1.164c1.101,0,2,0.9,2,2v8.827c0,1.1-0.899,2-2,2
			h-8.071c-7.431,0.326-11.325-2.635-11.689-8.871l-3.493-31.576c-0.121-1.093-0.694-1.988-1.273-1.988c-0.578,0-1.054,0.9-1.054,2
			v26.615c0.709,10.219-3.192,14.804-11.683,13.819h-9.157c-1.1,0-2-0.9-2-2v-8.827c0-1.1,0.9-2,2-2h0.658
			c1.767,0,2.658-0.993,2.658-2.97v-24.638c0-1.1-0.36-2-0.802-2c-0.44,0-0.974,0.883-1.184,1.963l-5.976,30.618
			c-1.433,6.254-5.142,9.369-11.166,9.369h-8.078c-1.101,0-2-0.9-2-2v-8.826c0-1.1,0.475-2,1.056-2l0,0
			c2.136,0.314,3.538-0.822,4.237-3.458l6.021-32.582c0.199-1.082,1.265-1.967,2.363-1.967h13.525c1.1,0,2-0.9,2-2v-33.489
			c0-1.1-0.9-2-2-2h-23.622c-1.101,0-2-0.9-2-2v-10.806H441.911z M408.479,197.664c0-1.1-0.899-2-2-2h-10.857c-1.1,0-2-0.9-2-2
			v-9.813c0-1.1,0.9-2,2-2h41.127c1.1,0,2,0.9,2,2v9.325c0,1.1-0.9,2-2,2h-9.288c-1.1,0-2,0.9-2,2v31.046c0,1.1,0.9,2,2,2h8.739
			c1.1,0,2,0.9,2,2v9.324c0,1.1-0.9,2-2,2h-8.739c-1.1,0-2,0.9-2,2v32.03c0,1.1,0.9,2,2,2h8.739c1.1,0,2,0.9,2,2v8.826
			c0,1.1-0.9,2-2,2h-41.124c-1.101,0-2-0.9-2-2v-8.341c0-1.1,0.899-2,2-2h11.403c1.101,0,2-0.9,2-2v-32.515c0-1.1-0.899-2-2-2
			h-10.857c-1.1,0-2-0.9-2-2v-9.832c0-1.1,0.9-2,2-2h10.857c1.101,0,2-0.9,2-2V197.664z M492.22,236.143c-1.1,0-2-0.9-2-2v-7.844
			c0-1.1,0.9-2,2-2h1.202c1.398,0.316,2.455-0.82,3.164-3.438l1.729-8.433c0.221-1.078,1.302-1.959,2.4-1.959h12.466
			c1.101,0,1.843,0.886,1.647,1.969l-2.828,15.806c-1.077,5.923-4.786,8.549-11.156,7.9L492.22,236.143L492.22,236.143z
			 M465.282,233.647c0,1.1-0.9,2-2,2h-9.688c-6.35,0.659-9.891-2.132-10.606-8.397l-2.335-14.301
			c-0.178-1.085,0.578-1.974,1.678-1.974h12.467c1.101,0,2.188,0.88,2.418,1.956l1.693,7.93c0,2.291,1.233,3.276,3.709,2.942h0.666
			c1.1,0,2,0.9,2,2L465.282,233.647L465.282,233.647z"/>
		<g>
			
				<image overflow="visible" enable-background="new    " width="2008" height="788" xlink:href="12B6CFEF23BD3351.png"  transform="matrix(0.2393 0 0 0.2376 70.5288 141.9277)">
			</image>
		</g>
	</g>
	<g>
		<path fill="#FFFFFF" d="M169.564,194.679c-1.1,0-2-0.9-2-2v-11.291c0-1.1,0.9-2,2-2h55.999c1.1,0,2,0.9,2,2v9.81
			c0,1.1-0.315,2.843-0.7,3.874l-20.361,54.5c-0.385,1.03-0.357,2.706,0.062,3.723l8.79,21.333c0.34,2.635,1.953,3.802,4.782,3.457
			h4.881c1.1,0,2,0.9,2,2v8.84c0,1.1-0.9,2-2,2h-13.921c-4.594,0-7.611-2.151-9.011-6.421l-3.942-8.547
			c-0.461-0.999-1.18-0.983-1.598,0.034l-3.498,8.513c-1.405,4.612-4.776,6.906-10.08,6.906h-12.345c-1.1,0-2-0.9-2-2v-9.326
			c0-1.1,0.9-2,2-2h2.269c2.832,0.345,4.417-0.659,4.776-2.95l8.86-23.791c0.384-1.031,0.349-2.703-0.079-3.717l-18.629-44.188
			c-0.427-1.014,0.123-1.843,1.223-1.843h13.512c1.1,0,2.342,0.833,2.761,1.85l9.644,23.445c0.418,1.017,1.052,0.998,1.409-0.042
			l10.37-30.276c0.356-1.041-0.252-1.892-1.352-1.892L169.564,194.679L169.564,194.679z M132.806,223.94
			c0.431,1.012,1.065,0.986,1.41-0.059l8.85-26.807c0.345-1.045-0.273-1.899-1.373-1.899h-33.164c-1.1,0-2-0.9-2-2v-11.301
			c0-1.1,0.9-2,2-2h52.799c1.1,0,2,0.9,2,2v9.324c0,1.1-0.315,2.843-0.702,3.873L143.33,246.6c-0.386,1.03-0.36,2.706,0.058,3.723
			l10.39,25.298c0.695,1.977,1.943,2.807,3.707,2.462h4.368c1.1,0,2,0.9,2,2v9.326c0,1.1-0.9,2-2,2h-12.867
			c-4.587,0-7.417-1.978-8.486-5.914l-5.579-12.966c-0.435-1.01-1.121-1-1.524,0.024l-5.103,12.942
			c-1.774,4.271-4.78,6.256-9.02,5.914h-10.209c-1.1,0-2-0.9-2-2v-9.326c0-1.1,0.9-2,2-2h2.761c1.065,0.345,1.79-0.142,2.125-1.48
			l10.443-27.728c0.388-1.029,0.37-2.707-0.04-3.728l-16.544-41.2c-0.41-1.021,0.155-1.856,1.255-1.856h12.449
			c1.1,0,2.352,0.828,2.783,1.84L132.806,223.94z M253.49,204.079c-1.1,0-2-0.9-2-2v-10.328c0-1.1,0.9-2,2-2h3.322
			c1.405,0.344,2.987-0.478,4.757-2.455l7.646-7.93c0.764-0.792,2.288-1.439,3.388-1.439h18.29c1.1,0,1.414,0.683,0.697,1.517
			l-1.626,1.894c-0.717,0.834-0.403,1.517,0.697,1.517h78.813c1.101,0,2,0.9,2,2v9.801c0,1.1-0.614,2.657-1.367,3.459L358.496,210.5
			c-0.753,0.802-0.468,1.459,0.632,1.459h10.854c1.1,0,2,0.9,2,2v30.073c1.064,11.175-4.41,16.132-16.438,14.807h-82.422
			c-1.1,0-2,0.9-2,2v13.301c-0.699,3.285,0.731,4.613,4.259,3.943h95.151c1.1,0,2,0.9,2,2v9.833c0,1.1-0.9,2-2,2H268.475
			c-13.795,1.296-19.454-3.317-16.985-13.833v-64.124c0-1.1,0.9-2,2-2h77.222c1.101,0,2.604-0.668,3.339-1.486l11.109-12.331
			c0.736-0.817,0.438-1.486-0.661-1.486h-64.983c-1.1,0-2.66,0.612-3.466,1.36l-3.857,3.578c-1.411,1.965-4.594,2.788-9.553,2.484
			L253.49,204.079L253.49,204.079z M271.122,243.024c0,1.1,0.9,2,2,2h26.814c1.1,0,2-0.9,2-2v-15.723c0-1.1-0.899-2-2-2h-26.814
			c-1.1,0-2,0.9-2,2V243.024z M352.351,240.108v-12.806c0-1.1-0.899-2-2-2h-27.333c-1.1,0-2,0.9-2,2v15.723c0,1.1,0.9,2,2,2h22.447
			C350.759,245.674,353.069,244.032,352.351,240.108z M441.911,191.273c0-1.1,0.899-2,2-2h24.148c1.101,0,2-0.9,2-2v-5.399
			c0-1.1,0.9-2,2-2h13.522c1.1,0,2,0.9,2,2v5.399c0,1.1,0.9,2,2,2h5.423c2.131,0,3.368-1.003,3.711-2.98v-2.443c0-1.1,0.9-2,2-2
			h11.402c1.1,0,2,0.9,2,2v7.371c0,8.57-5.303,12.687-15.934,12.339h-9.13c-1.1,0-2,0.9-2,2v34.008c0,1.1,0.9,2,2,2h13.512
			c1.1,0,2.096,0.895,2.214,1.989l3.499,32.56c0,2.951,1.062,4.288,3.193,3.943h1.164c1.101,0,2,0.9,2,2v8.827c0,1.1-0.899,2-2,2
			h-8.071c-7.431,0.326-11.325-2.635-11.689-8.871l-3.493-31.576c-0.121-1.093-0.694-1.988-1.273-1.988c-0.578,0-1.054,0.9-1.054,2
			v26.615c0.709,10.219-3.192,14.804-11.683,13.819h-9.157c-1.1,0-2-0.9-2-2v-8.827c0-1.1,0.9-2,2-2h0.658
			c1.767,0,2.658-0.993,2.658-2.97v-24.638c0-1.1-0.36-2-0.802-2c-0.44,0-0.974,0.883-1.184,1.963l-5.976,30.618
			c-1.433,6.254-5.142,9.369-11.166,9.369h-8.078c-1.101,0-2-0.9-2-2v-8.826c0-1.1,0.475-2,1.056-2l0,0
			c2.136,0.314,3.538-0.822,4.237-3.458l6.021-32.582c0.199-1.082,1.265-1.967,2.363-1.967h13.525c1.1,0,2-0.9,2-2v-33.489
			c0-1.1-0.9-2-2-2h-23.622c-1.101,0-2-0.9-2-2v-10.806H441.911z M408.479,197.664c0-1.1-0.899-2-2-2h-10.857c-1.1,0-2-0.9-2-2
			v-9.813c0-1.1,0.9-2,2-2h41.127c1.1,0,2,0.9,2,2v9.325c0,1.1-0.9,2-2,2h-9.288c-1.1,0-2,0.9-2,2v31.046c0,1.1,0.9,2,2,2h8.739
			c1.1,0,2,0.9,2,2v9.324c0,1.1-0.9,2-2,2h-8.739c-1.1,0-2,0.9-2,2v32.03c0,1.1,0.9,2,2,2h8.739c1.1,0,2,0.9,2,2v8.826
			c0,1.1-0.9,2-2,2h-41.124c-1.101,0-2-0.9-2-2v-8.341c0-1.1,0.899-2,2-2h11.403c1.101,0,2-0.9,2-2v-32.515c0-1.1-0.899-2-2-2
			h-10.857c-1.1,0-2-0.9-2-2v-9.832c0-1.1,0.9-2,2-2h10.857c1.101,0,2-0.9,2-2V197.664z M492.22,236.143c-1.1,0-2-0.9-2-2v-7.844
			c0-1.1,0.9-2,2-2h1.202c1.398,0.316,2.455-0.82,3.164-3.438l1.729-8.433c0.221-1.078,1.302-1.959,2.4-1.959h12.466
			c1.101,0,1.843,0.886,1.647,1.969l-2.828,15.806c-1.077,5.923-4.786,8.549-11.156,7.9L492.22,236.143L492.22,236.143z
			 M465.282,233.647c0,1.1-0.9,2-2,2h-9.688c-6.35,0.659-9.891-2.132-10.606-8.397l-2.335-14.301
			c-0.178-1.085,0.578-1.974,1.678-1.974h12.467c1.101,0,2.188,0.88,2.418,1.956l1.693,7.93c0,2.291,1.233,3.276,3.709,2.942h0.666
			c1.1,0,2,0.9,2,2L465.282,233.647L465.282,233.647z"/>
	</g>
</g>
</svg>
