<?xml version="1.0" encoding="utf-8"?>
<!-- Generator: Adobe Illustrator 16.0.0, SVG Export Plug-In . SVG Version: 6.00 Build 0)  -->
<!DOCTYPE svg PUBLIC "-//W3C//DTD SVG 1.1//EN" "http://www.w3.org/Graphics/SVG/1.1/DTD/svg11.dtd">
<svg version="1.1" id="图层_1" xmlns="http://www.w3.org/2000/svg" xmlns:xlink="http://www.w3.org/1999/xlink" x="0px" y="0px"
	 width="600px" height="600px" viewBox="0 0 600 600" enable-background="new 0 0 600 600" xml:space="preserve">
<path fill-rule="evenodd" clip-rule="evenodd" fill="#EA5514" d="M189.938,260.506l41.104-106.068
	c0,0-123.175-12.147-173.811,40.958C5.618,249.517-15.863,321.48,23.499,374.909c39.378,53.441,97.637,57.31,97.637,57.31
	l31.069-80.769c0,0-36.825-10.436-34.208-34.252c2.726-24.724,14.125-40.182,28.58-50.949
	C161.029,255.471,173.953,257.202,189.938,260.506L189.938,260.506z"/>
<polygon fill-rule="evenodd" clip-rule="evenodd" fill="#EA5514" points="399.251,81.737 315.399,81.737 181.591,431.128 
	138.957,431.128 290.596,36.661 417.077,36.661 399.251,81.737 "/>
<polygon fill-rule="evenodd" clip-rule="evenodd" fill="#EA5514" points="432.448,141.829 348.941,141.829 216.529,485.632 
	172.5,485.632 324.837,98.162 450.27,98.162 432.448,141.829 "/>
<path fill-rule="evenodd" clip-rule="evenodd" fill="#EA5514" d="M199.78,557.488l156.835-403.292h105.756
	c0,0,132.629-3.587,132.629,139.811c0,143.392-124.569,137.122-133.531,137.122c-8.958,0-86.933,0-86.933,0l-49.285,126.36H199.78
	L199.78,557.488z M480.767,311.849c20.426-55.394-39.896-49.881-39.896-49.881l-32.487,83.089
	C409.438,345.955,463.481,358.734,480.767,311.849L480.767,311.849z"/>
</svg>
