<?xml version="1.0" encoding="utf-8"?>
<!-- Generator: Adobe Illustrator 16.0.0, SVG Export Plug-In . SVG Version: 6.00 Build 0)  -->
<!DOCTYPE svg PUBLIC "-//W3C//DTD SVG 1.1//EN" "http://www.w3.org/Graphics/SVG/1.1/DTD/svg11.dtd">
<svg version="1.1" id="图层_1" xmlns="http://www.w3.org/2000/svg" xmlns:xlink="http://www.w3.org/1999/xlink" x="0px" y="0px"
	 width="600px" height="600px" viewBox="0 0 600 600" enable-background="new 0 0 600 600" xml:space="preserve">
<path fill="#FFFFFF" d="M288.819,475.541c0,0-298.168,318.049-103.626-79.068l1.034,1.556c0,0-90.106,240.299,101.554,75.987
	L288.819,475.541L288.819,475.541z"/>
<path fill="#FFFFFF" d="M214.124,225.841c0,0-388.654-7.573-64.403,149.552l1.239-2.188c0,0-185.797-102.786,63.325-145.138
	L214.124,225.841L214.124,225.841z"/>
<path fill="#B45B3E" fill-opacity="0" stroke="#FFFFFF" stroke-width="1.5" stroke-miterlimit="10" d="M459.407,310.334
	c2.356,84.48-64.214,154.869-148.682,157.227c-84.479,2.343-154.869-64.225-157.226-148.707
	C151.151,234.388,217.72,164,302.191,161.642C386.66,159.285,457.062,225.854,459.407,310.334L459.407,310.334z"/>
<path fill="#FFFFFF" d="M438.943,211.421c0,0,312.924-83.165,6.609,131.099l-0.542-2.017c0,0,155.159-137.987-5.833-127.423
	L438.943,211.421L438.943,211.421z"/>
<path fill="#FFFFFF" d="M326.083,475.541c0,0,298.177,318.049,103.627-79.068l-1.025,1.556c0,0,90.09,240.299-101.549,75.987
	L326.083,475.541L326.083,475.541z"/>
<path fill="#FFFFFF" fill-opacity="0" stroke="#FFFFFF" stroke-miterlimit="10" d="M244.697,416.174l-6.454-4.135l-7.23,11.285
	c-0.244,0.371-0.42,0.58-0.538,0.711c-0.317-0.117-0.93-0.394-2.116-1.156c-1.192-0.764-1.698-1.199-1.927-1.436
	c0.058-0.146,0.17-0.357,0.368-0.675l7.302-11.389l-6.451-4.139l-1.061,1.662l-6.237,9.731c-1.625,2.541-2.061,4.74-1.29,6.558
	c0.678,1.579,2.521,3.305,5.82,5.426c3.156,2.018,5.444,2.912,7.211,2.807c1.982-0.121,3.746-1.436,5.405-4.031L244.697,416.174
	 M220.644,411.523c0-0.195-0.054-0.38-0.081-0.576c0.448,0.381,1.002,0.844,1.002,0.844l1.672-2.068
	c1.982-2.346,1.882-4.332,1.441-5.584c-0.52-1.502-1.969-3.227-4.549-5.412c-2.732-2.307-4.775-3.477-6.408-3.703
	c-1.929-0.262-3.786,0.646-5.531,2.701c-1.341,1.595-2.013,3.058-2.013,4.425c0,0.094,0.031,0.174,0.039,0.252
	c-0.396-0.33-1.239-1.041-1.239-1.041l-1.66,2.055c-1.703,2.029-2.304,4.004-1.745,5.82c0.475,1.553,1.958,3.358,4.675,5.651
	c3.029,2.554,5.117,3.789,6.757,3.988c1.921,0.236,3.793-0.764,5.728-3.055C220.003,414.316,220.644,412.883,220.644,411.523
	 M212.8,411.014c-0.157,0.185-0.262,0.289-0.354,0.367c-0.27-0.158-0.724-0.461-1.509-1.117c-1.132-0.961-1.66-1.489-1.935-1.795
	c0.073-0.117,0.144-0.223,0.296-0.406c0.045-0.053,0.218-0.274,0.25-0.325c0.367,0.379,0.719,0.731,1.16,1.143
	c-0.007,0,1.494,1.41,1.494,1.41c0.314,0.301,0.507,0.512,0.638,0.658C212.827,410.975,212.8,411.014,212.8,411.014
	 M217.219,405.086l-0.349,0.475c-0.197-0.184-0.355-0.356-0.572-0.555c-1.289-1.195-1.909-1.842-2.245-2.225
	c0.045-0.066,0.067-0.092,0.132-0.17c0,0,0.039-0.041,0.065-0.066c0.275,0.156,0.829,0.502,1.85,1.371
	c0.611,0.512,0.956,0.855,1.158,1.064c-0.045,0.079-0.079,0.145-0.149,0.25L217.219,405.086 M403.172,399.488
	c-2.657-3.277-4.845-4.898-6.871-5.119c-2.028-0.227-4.492,0.906-7.771,3.553l0,0c-3.662,2.978-5.399,5.229-5.608,7.295
	c-0.04,0.515,0,1.058,0.131,1.646l-1.843-2.806l-1.633,1.095l-13.671,8.981l-0.557,0.289l-15.326,7.89l1.345,2.604
	c-0.319-0.248-0.634-0.471-0.961-0.631c-1.847-0.885-4.544-0.646-8.521,0.75l0,0c-4.452,1.58-6.835,3.119-7.718,5.004
	c-0.881,1.883-0.566,4.729,1.027,9.234c1.344,3.83,2.846,6.016,4.714,6.858c1.846,0.842,4.557,0.578,8.495-0.815
	c4.397-1.556,6.757-3.07,7.664-4.927c0.896-1.829,0.604-4.688-0.907-8.993c-0.463-1.291-0.925-2.369-1.424-3.32
	c1.079-0.551,3.345-1.711,4.453-2.291c1.342,2.609,6.505,12.615,6.505,12.615l6.794-3.5c0,0-5.148-10.023-6.479-12.617
	c0.936-0.488,2.673-1.383,3.887-2.002l0.038,0.041c0,0,0.157-0.107,0.424-0.277c0.524-0.274,0.867-0.447,0.867-0.447l-0.052-0.094
	c1.104-0.723,2.633-1.738,3.477-2.289c1.605,2.437,7.797,11.853,7.797,11.853l6.399-4.215c0,0-6.19-9.416-7.798-11.854
	c1.133-0.736,3.426-2.252,4.425-2.908c0.636,1.041,1.45,2.185,2.505,3.488c2.554,3.16,4.699,4.715,6.739,4.887
	c2.029,0.17,4.479-0.975,7.743-3.606c3.624-2.938,5.348-5.15,5.572-7.205C407.257,405.627,406.032,403.033,403.172,399.488
	 M346.547,438.863c-1.645,0.582-2.447,0.715-2.793,0.739c-0.209-0.288-0.62-1.014-1.209-2.727c-0.908-2.555-1.174-3.752-1.253-4.281
	c0.302-0.194,0.987-0.58,2.556-1.131h0.013c1.476-0.527,2.238-0.672,2.636-0.709c0.223,0.379,0.685,1.26,1.436,3.381
	c0.805,2.254,0.963,3.24,1.016,3.638C348.667,437.971,348.037,438.338,346.547,438.863 M397.552,409.393
	c-1.354,1.105-2.065,1.49-2.398,1.634c-0.287-0.211-0.907-0.75-2.052-2.158c-1.726-2.135-2.356-3.16-2.597-3.625
	c0.213-0.287,0.738-0.881,2.029-1.92l0,0c1.252-1.013,1.923-1.396,2.239-1.556c0.354,0.275,1.077,0.976,2.501,2.711
	c1.476,1.82,1.978,2.716,2.161,3.097C399.252,407.84,398.775,408.404,397.552,409.393 M326.926,443.908
	c-0.555-2.869-2.646-13.945-2.646-13.945l-1.938,0.369l-5.583,1.066l3.897,20.649l16.566-3.147l-1.265-6.705
	C335.959,442.195,329.309,443.449,326.926,443.908 M265.871,439.484c2.332,0.711,8.831,2.686,8.831,2.686l1.843-6.07
	c0,0-6.497-1.975-8.829-2.688c0.065-0.209,0.065-0.221,0.132-0.432c2.396,0.721,9.303,2.827,9.303,2.827l1.942-6.385l-16.632-5.07
	l-0.572,1.896l-5.544,18.213l16.724,5.086l1.943-6.391c0,0-6.985-2.117-9.395-2.854C265.74,439.904,265.748,439.879,265.871,439.484
	 M290.649,431.121l-11.542-1.607l-0.271,1.951l-2.612,18.871l7.592,1.053c0,0,0.546-3.987,0.782-5.676
	c1.568,0.226,3.37,0.476,3.37,0.476c0.738,0.104,0.917,0.29,0.917,0.29c0,0.015,0.033,0.064,0.033,0.234
	c0,0.066-0.007,0.158-0.021,0.264l-0.697,5.021l7.592,1.053l0.789-5.664c0.04-0.33,0.056-0.645,0.056-0.959
	c0-0.951-0.279-1.754-0.686-2.479c0.093-0.078,0.21-0.146,0.29-0.236c0.842-0.895,1.383-2.33,1.685-4.504
	c0.078-0.553,0.104-1.066,0.104-1.555c0-1.765-0.473-3.16-1.449-4.175C295.45,432.27,293.561,431.518,290.649,431.121
	 M290.195,438.732c-0.07,0.5-0.145,0.752-0.204,0.896c-0.184,0.014-0.513,0.025-1.119-0.066c0,0-1.842-0.247-3.356-0.461
	c0.117-0.854,0.144-1.065,0.261-1.922c1.647,0.236,3.616,0.502,3.616,0.502c0.428,0.066,0.693,0.132,0.869,0.185c0,0,0,0,0,0.014
	C290.262,438.061,290.248,438.338,290.195,438.732 M259.86,431.846c1.231-2.66,1.462-4.768,0.711-6.453
	c-0.716-1.604-2.41-2.975-5.326-4.334l-9.849-4.555l-0.83,1.791l-7.996,17.291l6.954,3.213c0,0,1.633-3.531,2.312-5.002
	c1.084,0.51,2.192,1.012,2.192,1.012c0.026,0.017,0.816,0.369,0.816,0.369c2.909,1.344,5.029,1.769,6.649,1.316
	C257.209,436.006,258.642,434.492,259.86,431.846 M252.828,428.658c-0.163,0.346-0.289,0.567-0.389,0.699
	c-0.289-0.066-0.803-0.224-1.738-0.658c0,0-1.053-0.486-2.061-0.961c0.396-0.855,0.507-1.095,0.903-1.951
	c1.179,0.541,2.402,1.106,2.402,1.106c0.672,0.316,1.069,0.541,1.305,0.699C253.177,427.816,253.059,428.156,252.828,428.658
	L252.828,428.658z"/>
<path fill="#FFFFFF" d="M233.109,168.58c0,0,80.542-417.817,144.993,69.969l-1.501,0.423c0,0-67.137-321.184-142.814-70.392H233.109
	L233.109,168.58z"/>
<path fill="none" stroke="#FFFFFF" stroke-miterlimit="10" d="M275.183,211.54l3.287-0.633l3.728-6.138l8.67-1.659l-13.637,23.019
	l10.341-2.079l-0.332,6.452l-20.168,4.122l0.363-5.333l7.395-12.01l-7.605,1.501l0.506-7.334l9.111-16.199l8.639-1.594
	L275.183,211.54 M285.825,242.988l-20.289,4.278l0.457-6.609l20.167-4.189L285.825,242.988 M298.521,215.172l6.149-1.249
	l3.673,6.295l4.255-8.547l-7.783,1.54l0.225-5.993l6.636-12.39l-22.248,4.161l0.303-6.021l31.021-5.728l-0.119,4.859l-7.771,13.498
	l7.719-1.527l-0.08,6.15l-8.39,16.212l1.463,2.079c0.54,0.764,0.946,1.226,1.226,1.357c0.275,0.118,0.947,0.078,2.001-0.132
	l5.068-1.383l-0.157,7.098l-6.349,1.331c-1.633,0.341-2.977,0.118-3.819,0.223c-0.854,0.105-1.711-0.368-2.553-1.437l-1.606-1.973
	l-1.948,2.527c-0.515,0.686-1.135,1.331-1.871,1.964c-0.736,0.629-1.816,1.092-3.227,1.394l-3.03,0.632l0.267-6.4l0.829-0.17
	c1.184-0.239,1.999-0.75,2.489-1.515l2.907-4.78l-5.45-9.8l-2.146,16.449c-0.356,2.609-0.83,4.413-1.462,5.413
	c-0.634,0.987-2.062,1.725-4.273,2.187l-3.154,0.672l0.311-6.203l0.571-0.118c0.323-0.065,0.587-0.291,0.796-0.698
	c0.214-0.396,0.389-1.187,0.55-2.371l4.068-32.674l7.202-1.368L298.521,215.172L298.521,215.172z"/>
<path fill="#FFFFFF" fill-opacity="0" stroke="#FFFFFF" stroke-miterlimit="10" d="M237.091,212.871l-8.776,1.75l-0.956,9.456
	l9.006-1.872l-0.533,5.822l-5.951,1.263l-0.455,4.622l6.156-1.328l-0.554,6.003l-6.195,1.37l-0.877,8.94l33.562-7.268l-0.294,6.888
	l-38.074,7.888c-1.231,0.275-2.442,0.381-3.628,0.302c-1.184-0.066-1.917-0.184-2.185-0.329l-1.121-0.58l-1.567,1.633
	c-0.956,0.987-2.431,1.726-4.417,2.187l-3.208,0.751l0.764-6.479l0.331-0.068c0.513-0.118,0.855-0.354,1.04-0.708
	c0.179-0.358,0.311-0.791,0.41-1.292c0.097-0.515,0.157-0.855,0.176-1.053l1.851-15.869l7.066-1.501l-1.423,13.048
	c-0.034,0.332-0.047,0.607-0.039,0.869c0.005,0.253,0.176,0.567,0.506,0.948c0.329,0.396,0.651,0.58,0.956,0.567l2.08,0.04
	l1.898-18.042l-12.123,2.57l0.704-5.98l8.712-1.804l1.035-9.521l-8.726,1.738l0.677-5.822l8.673-1.686l0.48-4.449l7.269-1.384
	l-0.446,4.413l8.717-1.701L237.091,212.871 M242.563,208.326l-3.396,0.672l0.506-5.636l22.111-4.255l-0.99,14.829
	c-0.052,0.804-0.202,1.751-0.446,2.819c-0.249,1.066-0.703,1.948-1.375,2.633c-0.672,0.698-2.26,1.302-4.754,1.83l-3.496,0.738
	l0.433-5.649l1.51-0.315c0.625-0.121,1-0.462,1.126-1.003c0.111-0.524,0.189-1.065,0.229-1.593l0.549-7.426l-5.02,0.986
	l-2.58,11.365c-0.191,0.789-0.441,1.514-0.751,2.173c-0.315,0.659-0.764,1.304-1.349,1.924c-0.58,0.63-1.66,1.106-3.24,1.434
	l-4.098,0.858l0.51-5.64l0.934-0.196c0.94-0.184,1.528-0.83,1.764-1.909L242.563,208.326 M237.691,226.264l23.085-4.875
	l-0.75,11.379c-0.14,2.119-0.791,3.872-1.948,5.253c-1.16,1.383-2.99,2.357-5.486,2.911l-16.558,3.754L237.691,226.264
	 M244.07,230.634l-0.538,6.491l7.453-1.658c0.811-0.171,1.384-0.485,1.72-0.922c0.341-0.449,0.546-1.157,0.612-2.108l0.283-3.858
	L244.07,230.634L244.07,230.634z"/>
<path fill="#FFFFFF" fill-opacity="0" stroke="#FFFFFF" stroke-width="3" stroke-miterlimit="10" d="M166.038,318.592
	c0.179,2.105-0.567,3.883-1.659,3.977c-1.094,0.095-2.121-1.539-2.292-3.647c-0.179-2.106,0.567-3.885,1.659-3.978
	C164.838,314.852,165.867,316.484,166.038,318.592L166.038,318.592z"/>
<path fill="#FFFFFF" fill-opacity="0" stroke="#FFFFFF" stroke-miterlimit="10" d="M170.062,312.402c0,0,2.476,7.414,0.708,11.299
	l16.588-1.066c0,0,30.361,54.375,32.482,56.141l19.061,1.765c0,0-23.652-32.133-35.654-58.248c0,0,22.234-1.424,27.529-0.354
	l6.006-13.065c0,0-25.069,0.356-34.945,1.058l-13.064,0.706L170.062,312.402L170.062,312.402z"/>
<path fill="#FFFFFF" fill-opacity="0" stroke="#FFFFFF" stroke-width="2" stroke-miterlimit="10" d="M248.786,342.414
	c0,0-3.523-10.602-3.523-32.486c0-21.889,3.523-33.53,3.523-33.53s48.718-7.771,107.375,2.119l-4.238,13.395
	c0,0-49.835-5.981-81.604-0.344c0,0-2.47,6.718-2.47,17.661c0,10.945,2.113,17.291,2.113,17.291H298.9v-29.303h21.191v29.303h48.368
	l-7.425,16.236h-40.247v34.596l-15.514,15.896H283.38v-14.828h16.231v-36.004L248.786,342.414L248.786,342.414z"/>
<path fill="#FFFFFF" fill-opacity="0" stroke="#FFFFFF" stroke-width="9" stroke-miterlimit="10" d="M275.117,367.477
	c0,8.4-6.809,15.209-15.209,15.209c-8.408,0-15.217-6.809-15.217-15.209c0-8.403,6.809-15.227,15.217-15.227
	C268.308,352.25,275.117,359.072,275.117,367.477L275.117,367.477z"/>
<path fill="#FFFFFF" d="M395.101,299.167c0,5.558-4.489,10.062-10.062,10.062c-5.543,0-10.059-4.504-10.059-10.062
	c0-5.558,4.516-10.062,10.059-10.062C390.61,289.106,395.101,293.61,395.101,299.167L395.101,299.167z"/>
<path fill="#FFFFFF" fill-opacity="0" stroke="#FFFFFF" stroke-miterlimit="10" d="M377.982,316.287h17.289
	c0,0,1.767,19.768-0.342,44.473l3.174,2.121l8.822-22.941h-8.124v-8.479l45.54-1.054v6.359l-3.531,5.648h3.531l-1.055,10.588
	l-7.77,8.822l-10.231,1.766v-7.414l10.6-1.766v-4.238l-4.951,0.355v-6.348l3.873-5.65l-15.516,1.053l-9.533,25.416h-4.954
	l2.479,2.832c0,0,33.526-2.832,37.77-7.07l-2.479,9.18c0,0-16.222,6.715-43.062,7.412l-5.637-3.172l-13.433,7.771
	c0,0,2.477-49.068,1.764-53.666h-4.227L377.982,316.287L377.982,316.287z"/>
<path fill="#FFFFFF" fill-opacity="0" stroke="#FFFFFF" stroke-miterlimit="10" d="M418.583,299.696v3.527l-20.479-0.354v8.479
	h20.818l0.37,18.346l10.932-4.229l0.354-13.42l12.367,1.055l0.343-7.401c-2.106-0.712-14.118-1.765-14.118-1.765v-4.095
	c1.661-0.725,12.354,0.909,12.354,0.909l0.712-7.414c-10.246-2.465-43.064-3.173-43.064-3.173v9.059
	C399.17,299.219,410.167,298.612,418.583,299.696L418.583,299.696z"/>
<polygon fill="#FFFFFF" fill-opacity="0" stroke="#FFFFFF" stroke-miterlimit="10" points="416.106,313.113 404.464,313.113 
	398.459,328.283 411.524,328.283 "/>
<polygon fill="#FFFFFF" fill-opacity="0" stroke="#FFFFFF" stroke-miterlimit="10" points="433.041,314.166 440.471,314.52 
	444.343,327.232 436.94,327.232 "/>
<polygon fill="#FFFFFF" fill-opacity="0" stroke="#FFFFFF" stroke-width="2" stroke-miterlimit="10" points="329.797,351.447 
	352.104,351.447 367.777,388.967 347.02,390.297 "/>
<path fill="#FFFFFF" fill-opacity="0" stroke="#FFFFFF" stroke-miterlimit="10" d="M215.956,285.93c0,0-20.479,41.101-30.361,88.603
	l-13.764-4.385c0,0,9.883-49.517,27.887-83.217L215.956,285.93L215.956,285.93z"/>
</svg>
